# xmcd
#
# Track frame offsets:
#	200
#	18420
#	39715
#	61565
#	78150
#	96325
#	111665
#	128840
#	147725
#	160060
#
# Disc length: 2625 seconds
#
# Revision: 1
# Processed by: cddbd v1.5.1PL2 Copyright (c) Steve Scherf et al.
# Submitted via: audiograbber 1.83.01
#
DISCID=850a3f0a
DTITLE=Little Jonny and The Giants - Telecaster Music
DYEAR=1900
DGENRE=Blues
TTITLE0=My Baby's Gone ('n' I Feel Good)
TTITLE1=You've Got To Move On
TTITLE2=My Kind Of Trouble
TTITLE3=Why Don't You Stay
TTITLE4=Arkansas Sunset
TTITLE5=You Don't Miss Your Water
TTITLE6=Sittin' On Top Of The World
TTITLE7=I Wish That You Would Love Me
TTITLE8=Barstool Boogie
TTITLE9=You Have Yourself To Blame
EXTD=
EXTT0=
EXTT1=
EXTT2=
EXTT3=
EXTT4=
EXTT5=
EXTT6=
EXTT7=
EXTT8=
EXTT9=
PLAYORDER=
